<svg width="24" height="25" viewBox="0 0 24 25" fill="none" xmlns="http://www.w3.org/2000/svg">
<path d="M13.5295 9.09661C12.9571 9.5047 12.2566 9.74475 11.5 9.74475C9.567 9.74475 8 8.17775 8 6.24475C8 4.31175 9.567 2.74475 11.5 2.74475C12.753 2.74475 13.8522 3.40317 14.4705 4.39289M6 20.8319H8.61029C8.95063 20.8319 9.28888 20.8724 9.61881 20.9534L12.3769 21.6236C12.9753 21.7694 13.5988 21.7836 14.2035 21.6662L17.253 21.0729C18.0585 20.9159 18.7996 20.5302 19.3803 19.9653L21.5379 17.8665C22.154 17.2681 22.154 16.2972 21.5379 15.6978C20.9832 15.1582 20.1047 15.0974 19.4771 15.5551L16.9626 17.3896C16.6025 17.6528 16.1643 17.7946 15.7137 17.7946H13.2855L14.8311 17.7945C15.7022 17.7945 16.4079 17.1081 16.4079 16.2607V15.9539C16.4079 15.2503 15.9156 14.6367 15.2141 14.4666L12.8286 13.8865C12.4404 13.7923 12.0428 13.7448 11.6431 13.7448C10.6783 13.7448 8.93189 14.5436 8.93189 14.5436L6 15.7696M20 7.24475C20 9.17775 18.433 10.7448 16.5 10.7448C14.567 10.7448 13 9.17775 13 7.24475C13 5.31175 14.567 3.74475 16.5 3.74475C18.433 3.74475 20 5.31175 20 7.24475ZM2 15.3448L2 21.1448C2 21.7048 2 21.9848 2.10899 22.1987C2.20487 22.3869 2.35785 22.5399 2.54601 22.6358C2.75992 22.7447 3.03995 22.7448 3.6 22.7448H4.4C4.96005 22.7448 5.24008 22.7448 5.45399 22.6358C5.64215 22.5399 5.79513 22.3869 5.89101 22.1987C6 21.9848 6 21.7048 6 21.1448V15.3448C6 14.7847 6 14.5047 5.89101 14.2908C5.79513 14.1026 5.64215 13.9496 5.45399 13.8537C5.24008 13.7448 4.96005 13.7448 4.4 13.7448L3.6 13.7448C3.03995 13.7448 2.75992 13.7448 2.54601 13.8537C2.35785 13.9496 2.20487 14.1026 2.10899 14.2908C2 14.5047 2 14.7847 2 15.3448Z" stroke="#B0B0B0" stroke-width="2" stroke-linecap="round" stroke-linejoin="round"/>
</svg>
